<svg xmlns="http://www.w3.org/2000/svg" viewBox="0 0 120 120" fill="none">
  <circle cx="60" cy="52" r="38" fill="#8B5E3C" opacity="0.15"/>
  <ellipse cx="60" cy="54" rx="32" ry="28" fill="#8B5E3C"/>
  <ellipse cx="60" cy="52" rx="28" ry="24" fill="#B07D4F"/>
  <circle cx="60" cy="50" r="12" fill="none" stroke="#FFF8F0" stroke-width="1.5" opacity="0.6"/>
  <circle cx="60" cy="50" r="6" fill="none" stroke="#FFF8F0" stroke-width="1" opacity="0.4"/>
  <line x1="60" y1="38" x2="60" y2="44" stroke="#FFF8F0" stroke-width="1" opacity="0.5"/>
  <line x1="48" y1="50" x2="54" y2="50" stroke="#FFF8F0" stroke-width="1" opacity="0.5"/>
  <line x1="66" y1="50" x2="72" y2="50" stroke="#FFF8F0" stroke-width="1" opacity="0.5"/>
  <line x1="60" y1="56" x2="60" y2="62" stroke="#FFF8F0" stroke-width="1" opacity="0.5"/>
  <line x1="52" y1="42" x2="55" y2="45" stroke="#FFF8F0" stroke-width="1" opacity="0.4"/>
  <line x1="68" y1="42" x2="65" y2="45" stroke="#FFF8F0" stroke-width="1" opacity="0.4"/>
  <line x1="52" y1="58" x2="55" y2="55" stroke="#FFF8F0" stroke-width="1" opacity="0.4"/>
  <line x1="68" y1="58" x2="65" y2="55" stroke="#FFF8F0" stroke-width="1" opacity="0.4"/>
  <path d="M42 88 C42 82, 50 78, 60 78 C70 78, 78 82, 78 88" stroke="#8B5E3C" stroke-width="2" fill="none" stroke-linecap="round"/>
  <path d="M36 92 L48 84 M84 92 L72 84" stroke="#D4A036" stroke-width="1.5" fill="none" stroke-linecap="round"/>
  <path d="M32 96 L40 88 M88 96 L80 88" stroke="#D4A036" stroke-width="1" fill="none" stroke-linecap="round" opacity="0.6"/>
</svg>
