<svg xmlns="http://www.w3.org/2000/svg" viewBox="0 0 64 64" fill="none">
  <path d="M16 56 L16 28 Q16 12, 32 12 Q48 12, 48 28 L48 56" fill="currentColor" opacity="0.15"/>
  <path d="M16 56 L16 28 Q16 12, 32 12 Q48 12, 48 28 L48 56" stroke="currentColor" stroke-width="2" fill="none"/>
  <ellipse cx="32" cy="40" rx="10" ry="8" fill="currentColor" opacity="0.3"/>
  <path d="M24 38 Q28 32, 32 38 Q36 32, 40 38" stroke="currentColor" stroke-width="1.2" opacity="0.5" fill="none"/>
  <path d="M28 8 Q29 4, 30 8" stroke="currentColor" stroke-width="1" opacity="0.4" fill="none"/>
  <path d="M32 6 Q33 2, 34 6" stroke="currentColor" stroke-width="1" opacity="0.4" fill="none"/>
  <path d="M36 8 Q37 4, 38 8" stroke="currentColor" stroke-width="1" opacity="0.4" fill="none"/>
  <line x1="16" y1="56" x2="48" y2="56" stroke="currentColor" stroke-width="2.5" stroke-linecap="round"/>
</svg>
