<svg xmlns="http://www.w3.org/2000/svg" viewBox="0 0 64 64" fill="none">
  <path d="M32 56 L32 20" stroke="currentColor" stroke-width="2" stroke-linecap="round"/>
  <path d="M32 20 Q28 14, 24 8" stroke="currentColor" stroke-width="1.5" stroke-linecap="round" fill="none"/>
  <ellipse cx="26" cy="16" rx="4" ry="8" fill="currentColor" opacity="0.6" transform="rotate(-20, 26, 16)"/>
  <ellipse cx="38" cy="16" rx="4" ry="8" fill="currentColor" opacity="0.6" transform="rotate(20, 38, 16)"/>
  <ellipse cx="24" cy="24" rx="4" ry="7" fill="currentColor" opacity="0.5" transform="rotate(-25, 24, 24)"/>
  <ellipse cx="40" cy="24" rx="4" ry="7" fill="currentColor" opacity="0.5" transform="rotate(25, 40, 24)"/>
  <ellipse cx="23" cy="32" rx="3.5" ry="6" fill="currentColor" opacity="0.4" transform="rotate(-30, 23, 32)"/>
  <ellipse cx="41" cy="32" rx="3.5" ry="6" fill="currentColor" opacity="0.4" transform="rotate(30, 41, 32)"/>
  <ellipse cx="24" cy="40" rx="3" ry="5" fill="currentColor" opacity="0.3" transform="rotate(-35, 24, 40)"/>
  <ellipse cx="40" cy="40" rx="3" ry="5" fill="currentColor" opacity="0.3" transform="rotate(35, 40, 40)"/>
</svg>
